<?xml version="1.0" encoding="UTF-8"?>
<svg id="Layer_2" data-name="Layer 2" xmlns="http://www.w3.org/2000/svg" viewBox="0 0 161.32 161.32">
  <g id="Layer_1-2" data-name="Layer 1">
    <g>
      <path d="M161.32,47.92c-3.53,3.4-7.07,6.8-10.59,10.21-2.58,2.5-3.39,2.51-5.98-.04-2.77-2.72-5.52-5.46-8.27-8.21-3.19-3.18-3.18-3.64-.04-6.84,.43-.44,.83-.91,1.25-1.37-19.87-16.27-54.51-19.28-79.63-1.4,2.15,5.49,1.94,10.86-2.51,15.27-4.36,4.32-9.59,4.74-15.08,2.46-15.57,20.35-17.79,54.79,.78,79.48,.19,0,.47,.07,.57-.04,5.32-5.35,5.39-3.59,9.62,.59,2.31,2.29,4.54,4.67,6.91,6.9,2.04,1.93,2.04,3.61,.03,5.59-3.56,3.52-6.98,7.18-10.46,10.78h-2.52c-3.5-3.48-7.01-6.94-10.49-10.43-2.85-2.86-2.85-3.43,.1-6.38,.88-.89,1.88-1.66,2.85-2.51-16.02-22.99-19.1-47.28-10.02-73.45-4.05,4.08-8.16,8.12-12.1,12.31-.55,.58-.49,1.92-.4,2.87,.5,5.05-2.56,8.91-7.3,9.05C3.36,92.93-.24,89.27,.01,84.65c.25-4.64,4.3-7.68,9.25-7.19,1.12,.11,2.66-.29,3.44-1.04,7.15-6.96,14.13-14.08,21.26-21.06,1.29-1.27,1.32-2.22,.64-3.79-2.26-5.26-1.28-10.09,2.63-14.22,3.7-3.91,9.12-5.03,14.17-2.78,1.93,.86,2.93,.43,4.28-.94,6.69-6.82,13.45-13.58,20.25-20.28,1.36-1.34,1.98-2.51,1.61-4.56-.68-3.79,1.34-6.9,4.79-8.25,3.24-1.27,6.91-.2,8.97,2.63,2.02,2.76,1.96,6.72-.19,9.37-1.88,2.32-4.36,2.95-7.3,2.85-1.34-.05-3.04,.52-4.01,1.42-3.87,3.59-7.52,7.42-11.15,11.37,25.93-9.43,50.13-6.38,73.95,10.12,.65-1.05,1.37-2.48,2.33-3.71,1.71-2.18,3.51-2.24,5.51-.14,3.55,3.72,7.23,7.31,10.85,10.96v2.52Zm-114.96,6.33c4.35,.03,7.81-3.33,7.87-7.66,.06-4.43-3.53-8.08-7.89-8.02-4.21,.06-7.79,3.69-7.78,7.89,0,4.25,3.52,7.76,7.81,7.79Zm-6.82,93.09c2.44,2.47,4.82,4.88,6.89,6.97,2.3-2.12,4.73-4.36,6.85-6.31-2.33-2.59-4.55-5.06-6.77-7.54-2.52,2.49-4.9,4.84-6.97,6.88ZM148.59,40c-2.56,2.32-5.11,4.62-7.25,6.56,2.05,2.26,4.22,4.65,6.37,7.01,2.5-2.45,4.88-4.79,7.19-7.06-2.4-2.47-4.73-4.87-6.32-6.51ZM88.84,7.59c-1.85-1.17-2.97-2.42-3.83-2.27-.94,.16-2.28,1.64-2.28,2.54,0,.81,1.55,2.17,2.49,2.25,.88,.07,1.87-1.23,3.62-2.52ZM11.45,84.83c-1.85-1.07-2.91-2.18-3.89-2.11-.81,.06-1.51,1.52-2.26,2.36,.94,.82,1.78,2.08,2.84,2.3,.68,.14,1.69-1.24,3.3-2.56Z"/>
      <path d="M118.48,161.32c-2.73-5.18-5.36-10.41-8.27-15.49-.8-1.39-2.26-2.74-3.73-3.34-7.56-3.1-15.26-5.83-22.8-8.97-1.62-.67-3.37-2.25-4.02-3.83-8.38-20.56-16.54-41.21-24.84-61.8-.97-2.4-.72-4.11,1.25-5.82,1.98-1.71,3.88-3.56,5.55-5.57,1.99-2.39,3.98-2.65,6.87-1.48,19.41,7.88,38.84,15.71,58.38,23.26,4.21,1.63,6.62,3.99,8,8.25,2.1,6.47,4.9,12.7,7.16,19.12,.91,2.59,2.46,4.08,4.87,5.25,4.89,2.37,9.63,5.03,14.43,7.58v2.52c-5.66,5.57-11.35,11.09-16.96,16.71-7.82,7.84-15.58,15.74-23.37,23.62h-2.52ZM59.93,65.02c.2,1.14,.22,2.28,.61,3.26,7.72,19.38,15.45,38.75,23.29,58.07,.47,1.17,1.7,2.38,2.87,2.86,6.99,2.85,14.08,5.43,21.08,8.25,1.82,.73,2.99,.57,4.39-.86,8.1-8.23,16.27-16.39,24.48-24.51,1.3-1.29,1.59-2.35,.88-4.11-2.86-7.09-5.48-14.29-8.34-21.38-.44-1.1-1.54-2.28-2.63-2.72-19.53-7.91-39.1-15.71-58.68-23.49-.87-.35-1.94-.2-3.01-.29,11.06,11.08,21.79,21.81,32.67,32.71,8.25-3.7,15.6-2.3,20.13,4.2,4.07,5.86,3.45,13.68-1.49,18.82-4.92,5.11-12.84,6.11-18.73,2.12-8-5.42-8.37-13.85-4.84-20.31-10.9-10.88-21.63-21.59-32.69-32.62Zm59.94,88.48c11.24-11.24,22.43-22.43,33.61-33.61-3.56-1.77-7.55-3.76-11.15-5.55-9.52,9.46-18.74,18.62-28.1,27.92,1.93,3.84,3.93,7.83,5.64,11.23Zm-24.08-48.01c0,5.39,4.42,9.81,9.76,9.77,5.33-.04,9.78-4.59,9.69-9.9-.09-5.23-4.41-9.51-9.67-9.56-5.42-.06-9.78,4.26-9.78,9.69Z"/>
    </g>
  </g>
</svg>